<?xml version="1.0" encoding="UTF-8"?>
<svg xmlns="http://www.w3.org/2000/svg" version="1.1" viewBox="0 0 1220.9 1006">
  <defs>
    <style>
      .cls-1 {
        fill: #ff7f3e;
      }
    </style>
  </defs>
  <!-- Generator: Adobe Illustrator 28.7.1, SVG Export Plug-In . SVG Version: 1.2.0 Build 142)  -->
  <g>
    <g id="Layer_1">
      <g id="Layer_1-2" data-name="Layer_1">
        <g>
          <path class="cls-1" d="M1466.2,438.3c-22.6,0-40.8-4.6-54.6-13.9-13.8-9.3-23.2-22.3-28.2-39s-5.8-36.2-2.4-58.7c3.6-22.4,10.3-41.4,20.2-57,9.9-15.6,22.5-27.5,37.9-35.7s33.1-12.2,53.1-12c14.6,0,27.4,2.2,38.4,6.4,11,4.3,20.5,10.7,28.5,19.1l-8.4,14.7c-8.6-8.8-17.5-14.9-26.9-18.4-9.3-3.5-20.2-5.2-32.8-5.2-25,0-45.4,7.9-61,23.9-15.7,15.9-25.9,38.4-30.5,67.3-3,18.4-2.6,34.5,1.2,48.3,3.8,13.8,11.2,24.6,22.2,32.2,11,7.7,25.7,11.5,44.1,11.5s23.2-2,34.3-6c11.1-4,21.3-10.6,30.8-19.8l7.5,14.4c-9.2,9-20.4,15.9-33.4,20.7-13.1,4.8-26.5,7.2-40.1,7.2h.1Z"/>
          <path class="cls-1" d="M1641.4,438.3c-16,0-29.2-3.3-39.8-9.9s-17.8-16-21.9-28.4c-4.1-12.3-4.9-26.9-2.2-43.6,2.4-15.6,7.1-28.8,14.2-39.8,7.1-10.9,16.1-19.2,27-24.9,10.9-5.7,23.3-8.6,37.3-8.6s24.5,2.9,33.3,8.7c8.8,5.8,15,14,18.8,24.5,3.7,10.5,4.5,22.6,2.6,36.4l-1.5,8.4h-120l2.1-12.9h109.5l-5.1,3.9c2.4-17.4.2-30.9-6.6-40.5-6.8-9.6-18.2-14.4-34.2-14.4s-21.6,2.6-30,7.6c-8.4,5.1-15.1,12.1-20.2,20.9s-8.5,18.8-10,30l-.6,5.7c-2.8,19.8,0,35.1,8.4,45.8,8.4,10.7,21.8,16,40.2,16s18.2-1.4,27-4.4c8.8-2.9,16.9-7.7,24.3-14.5l7.5,13.2c-8,6.6-17.2,11.7-27.6,15.3-10.4,3.6-21.2,5.4-32.4,5.4h-.1Z"/>
          <path class="cls-1" d="M1737.1,435.9l35.1-220.8h17.7l-35.1,220.8h-17.7Z"/>
          <path class="cls-1" d="M1805.2,435.9l23.7-150.3h17.7l-23.7,150.3h-17.7ZM1831.9,248.4l3.6-22.5h23.7l-3.6,22.5h-23.7Z"/>
          <path class="cls-1" d="M1931.8,438.3c-13.8,0-25.4-3.1-34.8-9.4-9.4-6.3-16-15.5-19.7-27.6s-4.2-26.7-1.3-44c4-24,12.9-42.3,26.7-55s30.5-19.1,50.1-19.1,25.2,3.6,34.2,10.7,14.5,16.9,16.5,29.2l-3.6.3,9.3-37.8h17.1c-1.6,5.8-3.1,11.5-4.5,17.1s-2.5,11.1-3.3,16.5l-18.6,116.7h-17.4l6-37.8h4.5c-5.6,12.6-13.6,22.5-24,29.5-10.4,7.1-22.8,10.6-37.2,10.6h0ZM1935.1,423.3c15.2,0,28.2-5.3,39-16s17.9-26.1,21.3-46.4c3.2-20.4.9-35.9-6.9-46.6-7.8-10.7-19.6-16.1-35.4-16.1s-28.2,5.4-38.8,16.1c-10.7,10.7-17.7,26.1-20.9,46-3.2,20.6-1,36.3,6.5,47s19.2,16,35.2,16h0Z"/>
          <path class="cls-1" d="M1372,757.9l33.6-211.5h18l-15.6,97.5h.6l120.6-97.5h25.2l-135.9,108.9-.3-10.5,111.6,113.1h-24l-99.3-100.8h-.6l-15.9,100.8h-18,0Z"/>
          <path class="cls-1" d="M1554.4,757.9l23.7-150.3h17.7l-23.7,150.3h-17.7ZM1581.1,570.4l3.6-22.5h23.7l-3.6,22.5h-23.7Z"/>
          <path class="cls-1" d="M1672.9,760.3c-14.6,0-25-4.1-31-12.2-6.1-8.1-7.9-20.2-5.2-36.5l14.1-89.7h-29.7l2.4-14.4h29.7l6.9-42,18.3-5.7-7.5,47.7h44.4l-2.4,14.4h-44.4l-13.5,86.4c-2,12.8-1.4,22.1,1.8,27.9,3.2,5.8,9.2,8.7,18,8.7s7.3-.4,10.5-1.2,6-1.7,8.4-2.7l-2.4,15.6c-2.6,1-5.4,1.8-8.4,2.5s-6.3,1.1-9.9,1.1h-.1Z"/>
          <path class="cls-1" d="M1781.5,760.3c-13.8,0-25.4-3.2-34.8-9.5s-16-15.5-19.7-27.6-4.2-26.7-1.3-43.9c4-24,12.9-42.3,26.7-55,13.8-12.7,30.5-19.1,50.1-19.1s25.2,3.6,34.2,10.7c9,7.1,14.5,16.9,16.5,29.2l-3.6.3,9.3-37.8h17.1c-1.6,5.8-3.1,11.5-4.5,17.1s-2.5,11.1-3.3,16.5l-18.6,116.7h-17.4l6-37.8h4.5c-5.6,12.6-13.6,22.5-24,29.5-10.4,7.1-22.8,10.7-37.2,10.7h0ZM1784.8,745.3c15.2,0,28.2-5.3,39-16.1,10.8-10.7,17.9-26.1,21.3-46.3,3.2-20.4.9-35.9-6.9-46.6-7.8-10.7-19.6-16.1-35.4-16.1s-28.2,5.4-38.8,16.1c-10.7,10.7-17.7,26.1-20.9,46-3.2,20.6-1,36.3,6.5,46.9,7.5,10.7,19.2,16.1,35.2,16.1h0Z"/>
          <path class="cls-1" d="M1900,757.9l18.6-116.7c.8-5.4,1.4-10.9,1.8-16.5.4-5.6.7-11.3.9-17.1h17.1l-2.7,34.8-4.2.3c6-12.2,14.4-21.5,25.2-27.9s23.1-9.6,36.9-9.6,31.4,5.2,38.5,15.6c7.1,10.4,9,25.3,5.9,44.7l-14.4,92.4h-17.7l14.7-92.1c2.6-16.4,1.2-28.1-4-35.1-5.3-7-14.7-10.5-28-10.5s-28.2,4.7-38.2,14c-10.1,9.3-16.4,21.7-18.8,37l-13.8,86.7h-17.8Z"/>
          <path class="cls-1" d="M2131.6,760.3c-13.8,0-25.4-3.2-34.8-9.5-9.4-6.3-16-15.5-19.7-27.6s-4.2-26.7-1.3-43.9c4-24,12.9-42.3,26.7-55s30.5-19.1,50.1-19.1,25.2,3.6,34.2,10.7c9,7.1,14.5,16.9,16.5,29.2l-3.6.3,9.3-37.8h17.1c-1.6,5.8-3.1,11.5-4.5,17.1s-2.5,11.1-3.3,16.5l-18.6,116.7h-17.4l6-37.8h4.5c-5.6,12.6-13.6,22.5-24,29.5-10.4,7.1-22.8,10.7-37.2,10.7h0ZM2134.9,745.3c15.2,0,28.2-5.3,39-16.1,10.8-10.7,17.9-26.1,21.3-46.3,3.2-20.4.9-35.9-6.9-46.6-7.8-10.7-19.6-16.1-35.4-16.1s-28.2,5.4-38.8,16.1c-10.7,10.7-17.7,26.1-20.9,46-3.2,20.6-1,36.3,6.5,46.9,7.5,10.7,19.2,16.1,35.2,16.1h0Z"/>
        </g>
        <g id="Graphic_Elements">
          <path class="cls-1" d="M1186,681.8c-62.9-68-142.4-111.3-229.7-125.3-11.1-1.8-21.5,6.7-23.1,18.9s6.1,23.5,17.2,25.3c71.5,11.4,137.4,44.9,191.4,97-66.4,64-151.6,100.1-241.2,101.9-85.1,1.7-167.4-27.8-234.1-83.2,203.3-28.6,362-218.5,363.1-446.9,0-5.9-2.1-11.7-6-15.9-4.1-4.5-9.6-7-14.9-6.6-86.6.6-169.2,30.2-239.1,85.5-9.1,7.2-11.1,21.2-4.5,31.2,3.2,4.8,7.9,8,13.3,8.9s10.8-.5,15.2-4c57.1-45.3,124.1-71.5,194.4-76.3-5.8,101.1-45.8,195.5-113.3,267-58.5,61.9-132.2,100.7-211.4,112.3,125.4-176.9,115.4-433-30.9-594.5-3.7-4.1-9-6.5-14.5-6.5s-10.8,2.4-14.5,6.5c-62.3,68.7-101.9,155.5-114.7,251-1.6,12.2,6.1,23.5,17.3,25.3,11.1,1.7,21.5-6.7,23.1-18.9,10.5-78.1,41.1-150.1,88.8-209.1,60.9,75.4,93.3,172.6,91.6,274.9-1.5,88.6-28.6,172.7-77,241.9-25.9-220.2-197.7-392.9-404.2-395.3-5.6,0-10.8,2.2-14.7,6.5-3.8,4.2-6.1,9.9-6.1,15.9v41.4c0,.7,0,1.5.1,2.3,7.1,75.9,32,149,72.1,211.6,6.4,10.1,19.2,12.5,28.4,5.5,4.5-3.4,7.5-8.5,8.4-14.4.9-5.9-.2-11.8-3.4-16.7-35.9-56-58.3-121.5-64.8-189.4v-17.1c91.4,6.6,177,50.4,241.7,124,55.9,63.5,91,143.5,101.5,229.1-160.8-135.3-393.9-122-540.3,34.7-3.9,4.2-6.1,9.8-6.1,15.8s2.2,11.7,6,15.9l26.7,29.2c.5.6,1,1.1,1.6,1.6,73,65,165.3,100.8,259.8,100.8h.8c73.9,0,146.3-21.7,209.6-62.7,4.7-3,8-7.9,9.4-13.7s.6-11.8-2.2-16.9c-2.8-5.1-7.2-8.8-12.5-10.2-5.3-1.5-10.8-.6-15.5,2.4-56.9,36.9-122.1,56.4-188.6,56.5h-1c-84.8,0-167.5-32-233.1-90.1l-11.1-12.1c69-66.1,157.6-101.4,250.9-99.8,96.5,1.7,187.1,43,255.1,116.4h0c78,84.3,181.7,130.6,292.2,130.6h0c110.6,0,214.5-46.4,292.5-130.7,3.8-4.2,6.1-9.9,6.1-15.9s-2.2-11.7-6.1-15.9l.2.3Z"/>
        </g>
      </g>
    </g>
  </g>
</svg>